/* XPM */
static char *adlpr_e3upj_0[] = {
/* columns rows colors chars-per-pixel */
"64 64 115 2 ",
"   c #1B1B5D",
".  c #37377F",
"X  c #676754",
"o  c #55557B",
"O  c #696976",
"+  c #66667D",
"@  c #818173",
"#  c #000094",
"$  c #0D0D9F",
"%  c #2D2D88",
"&  c #3C3C8D",
"*  c #2C2C90",
"=  c #2E2E9B",
"-  c #31319C",
";  c #3D3D9B",
":  c #0F0FA6",
">  c #0B0BAB",
",  c #1919A0",
"<  c #0505B4",
"1  c #0606BA",
"2  c #0C0CBC",
"3  c #1313B0",
"4  c #2727A2",
"5  c #2A2AA7",
"6  c #2424AE",
"7  c #3636A5",
"8  c #3434A8",
"9  c #474783",
"0  c #4A4A83",
"q  c #43438F",
"w  c #4D4D9E",
"e  c #555595",
"r  c #55559A",
"t  c #5A5A9A",
"y  c #6E6E84",
"u  c #7B7B83",
"i  c #74748A",
"p  c #4646A4",
"a  c #5252A2",
"s  c #6D6DA6",
"d  c #7474A0",
"f  c #7C7CA5",
"g  c #7474A8",
"h  c #0101C4",
"j  c #0C0CC0",
"k  c MediumBlue",
"l  c #0000D2",
"z  c #0000DC",
"x  c #0000E3",
"c  c #0000EF",
"v  c #0000F4",
"b  c #0000FF",
"n  c #878785",
"m  c #8C8C84",
"M  c #8D8D8E",
"N  c #9A9A8A",
"B  c #87879B",
"V  c #959595",
"C  c #9F9F92",
"Z  c #92929E",
"A  c #9C9C9B",
"S  c #A3A396",
"D  c #A0A09D",
"F  c #ABAB9C",
"G  c #B0B09E",
"H  c #8484A3",
"J  c #8585AC",
"K  c #8B8BAF",
"L  c #9494AC",
"P  c #9C9CAF",
"I  c #9D9DB4",
"U  c #A4A4A4",
"Y  c #A9A9A5",
"T  c #AAAAAA",
"R  c #B4B4AD",
"E  c #B9B9AD",
"W  c #A5A5B4",
"Q  c #ACACB3",
"!  c #AAAABC",
"~  c #B2B2B2",
"^  c #B9B9B5",
"/  c #BCBCBC",
"(  c #C8C8BA",
")  c #C4C4C4",
"_  c #CBCBCB",
"`  c #D3D3C5",
"'  c #D5D5CC",
"]  c #D8D8C8",
"[  c #D3D3D3",
"{  c #DBDBD4",
"}  c #D7D7D8",
"|  c #DCDCDB",
" . c #E2E2D4",
".. c #E8E8D7",
"X. c #E3E3DE",
"o. c #EAEADC",
"O. c #E2E2E2",
"+. c #ECECE4",
"@. c #E7E7E8",
"#. c #EAEAEA",
"$. c #F2F2E8",
"%. c #F0F0EE",
"&. c #F5F5ED",
"*. c #F9F9EA",
"=. c #EFEFF0",
"-. c gray95",
";. c #F3F3F3",
":. c gray97",
">. c #F8F8F1",
",. c #FBFBF1",
"<. c #FEFEF3",
"1. c #FFFFF6",
"2. c #F9F9F9",
"3. c #FFFFFA",
"4. c #FDFDFD",
/* pixels */
"4.4.4.4.4.4.4.4.4.4.4.4.4.4.4.4.4.4.4.4.4.4.4.4.4.4.4.4.4.4.4.4.4.4.4.4.4.4.4.4.4.4.4.4.4.4.4.4.4.4.4.4.4.4.4.4.4.4.4.4.4.4.4.4.",
"4.4.4.4.4.4.4.4.4.4.4.4.4.4.4.4.4.4.4.4.4.4.4.4.4.4.4.4.4.4.4.4.3.4.4.4.4.4.4.4.4.4.4.4.4.4.4.4.4.4.4.4.4.4.4.4.4.4.4.4.4.4.4.4.",
"4.4.4.4.4.4.4.4.4.4.4.4.4.4.4.4.4.4.4.4.4.4.4.4.4.4.4.4.4.4.>.d p Q 4.4.4.4.4.4.4.4.4.4.4.4.4.4.4.4.4.4.4.4.4.4.4.4.4.4.4.4.4.4.",
"4.4.4.4.4.4.4.4.4.4.4.4.4.4.4.4.4.4.4.4.4.4.4.4.4.4.4.4.4.4.W h b 3 ..4.4.4.4.4.4.4.4.4.4.4.4.4.4.4.4.4.4.4.4.4.4.4.4.4.4.4.4.4.",
"4.4.4.4.4.4.4.4.4.4.4.4.4.4.4.4.4.4.4.4.4.4.4.4.4.4.4.4.4.4.L h b $  .4.4.4.4.4.4.4.4.4.4.4.4.4.4.4.4.4.4.4.4.4.4.4.4.4.4.4.4.4.",
"4.4.4.4.4.4.4.4.4.4.4.4.4.4.4.4.4.4.4.4.4.4.4.4.4.4.4.4.4./ C J & U D [ 4.4.4.4.4.4.4.4.4.4.4.4.4.4.4.4.4.4.4.4.4.4.4.4.4.4.4.4.",
"4.4.4.4.4.4.4.4.4.4.4.4.4.4.4.4.4.4.4.4.4.4.4.4.4.4.4.#.A ~ 4.<.G 4.@.V ^ 4.4.4.4.4.4.4.4.4.4.4.4.4.4.4.4.4.4.4.4.4.4.4.4.4.4.4.",
"4.4.4.4.4.4.4.4.4.4.4.4.4.4.4.4.4.4.4.4.4.4.4.4.4.4.[ V [ 4.4.#.T 4.4.4.^ V #.4.4.4.4.4.4.4.4.4.4.4.4.4.4.4.4.4.4.4.4.4.4.4.4.4.",
"4.4.4.4.4.4.4.4.4.4.4.4.4.4.4.4.4.4.4.4.4.4.4.4.4.T A -.4.4.4.#.T 4.4.4.4.[ V ) 4.4.4.4.4.4.4.4.4.4.4.4.4.4.4.4.4.4.4.4.4.4.4.4.",
"4.4.4.4.4.4.4.4.4.4.4.4.4.4.4.4.4.4.4.4.4.4.4.@.V / 4.4.4.4.4.#.T 4.4.4.4.4.:.U T 2.4.4.4.4.4.4.4.4.4.4.4.4.4.4.4.4.4.4.4.4.4.4.",
"4.4.4.4.4.4.4.4.4.4.4.4.4.4.4.4.4.4.4.4.4.4.) V | 4.4.4.4.4.4.#.T 4.4.4.4.4.4.4.) V | 4.4.4.4.4.4.4.4.4.4.4.4.4.4.4.4.4.4.4.4.4.",
"4.4.4.4.4.4.4.4.4.4.4.4.4.4.4.4.4.4.4.4.2.U U 2.4.4.4.4.4.4.4.#.T 4.4.4.4.4.4.4.4.| V ) 4.4.4.4.4.4.4.4.4.4.4.4.4.4.4.4.4.4.4.4.",
"4.4.4.4.4.4.4.4.4.4.4.4.4.4.4.4.4.4.4.} V ) 4.4.4.4.4.4.4.4.4.#.T 4.4.4.4.4.4.4.4.4.4.U U :.4.4.4.4.4.4.4.4.4.4.4.4.4.4.4.4.4.4.",
"4.4.4.4.4.4.4.4.4.4.4.4.4.4.4.4.4.4./ V @.4.4.4.4.4.4.4.4.4.4.#.T 4.4.4.4.4.4.4.4.4.4.4._ V [ 4.4.4.4.4.4.4.4.4.4.4.4.4.4.4.4.4.",
"4.4.4.4.4.4.4.4.4.4.4.4.4.4.4.4.#.A ~ 4.4.4.4.4.4.4.4.4.4.4.4.#.U 4.4.4.4.4.4.4.4.4.4.4.4.#.A ^ 4.4.4.4.4.4.4.4.4.4.4.4.4.4.4.4.",
"4.4.4.4.4.4.4.4.4.4.4.4.4.4.4.[ V [ 4.4.4.4.4.4.4.4.4.4.4.4.4.#.T 4.4.4.4.4.4.4.4.4.4.4.4.4.4.~ V #.4.4.4.4.4.4.4.4.4.4.4.4.4.4.",
"4.4.4.4.4.4.4.4.4.4.4.4.4.4.T A -.4.4.4.4.4.4.4.4.4.4.4.4.4.4.#.T 4.4.4.4.4.4.4.4.4.4.4.4.4.4.4.} V _ 4.4.4.4.4.4.4.4.4.4.4.4.4.",
"4.4.4.4.4.4.4.4.4.4.4.4.@.V / 4.4.4.4.4.4.4.4.4.4.4.4.4.4.4.4.#.T 4.4.4.4.4.4.4.4.4.4.4.4.4.4.4.4.:.U T 2.4.4.4.4.4.4.4.4.4.4.4.",
"4.4.4.4.4.4.4.4.4.4.4.) V } 4.4.4.4.4.4.4.4.4.4.4.4.4.4.4.4.4.#.T 4.4.4.4.4.4.4.4.4.4.4.4.4.4.4.4.4.4./ V | 4.4.4.4.4.4.4.4.4.4.",
"4.4.4.4.4.4.4.4.4.:.U U 2.4.4.4.4.4.4.4.4.4.4.4.4.4.4.4.4.4.4.#.T 4.4.4.4.4.4.4.4.4.4.4.4.4.4.4.4.4.4.4.O.V ) 4.4.4.4.4.4.4.4.4.",
"4.4.4.4.4.4.4.4.} V _ 4.4.4.4.4.4.4.4.4.4.4.4.4.4.4.4.4.4.4.4.#.U 4.4.4.4.4.4.4.4.4.4.4.4.4.4.4.4.4.4.4.4.4.T A >.4.4.4.4.4.4.4.",
"4.4.4.4.4.4.4./ V #.4.4.4.4.4.4.4.4.4.4.4.4.4.4.4.4.4.4.4.4.4.#.T 4.4.4.4.4.4.4.4.4.4.4.4.4.4.4.4.4.4.4.4.4.4.[ M } 4.4.4.4.4.4.",
"4.4.4.4.4.#.A ~ 4.4.4.4.4.4.4.4.4.4.4.4.4.4.4.4.4.4.4.4.4.4.4.#.T 4.4.4.4.4.4.4.4.4.4.4.4.4.4.4.4.4.4.4.4.4.4.4.=.V ^ 4.4.4.4.4.",
"4.1.' 1.[ V [ 4.4.4.4.4.4.4.4.4.4.4.4.4.4.4.4.4.$.' 4.4.4.4.4.#.U 4.4.4.4.4.*.' 3.4.4.4.4.4.4.4.4.4.4.4.4.4.4.4.4.4./ V %.$.{ 4.",
"+.a 1 q F :.4.4.4.4.4.4.4.4.4.4.4.4.4.4.4.4.4.| - 1 f 4.4.4.4.4.} 4.4.4.4.+.; 1 s 3.4.4.4.4.4.4.4.4.4.4.4.4.4.4.4.4.4.@.m 4 2 H ",
"Q l b l n ^ T T T T T T T T T T T T T T T T R o v b < N R T T T ^ T T T R + x b 1 m ~ T T T T T T T T T T T T T T T T E 9 b b : ",
"{ 6 z 6 ' #.#.#.#.#.#.#.#.#.#.#.#.#.#.#.#.#.#.Q 2 z p  .#.#.#.@.} #.@.#.#./ 3 z 8 { #.#.#.#.#.#.#.#.#.#.#.#.#.#.#.#.#.#.P h z w ",
"4.{ i T 4.4.4.4.4.4.4.4.4.4.4.4.4.4.4.4.4.4.4.4.n B +.4.4.4.4.-.Y 4.4.4.4.4._ y ^ 4.4.4.4.4.4.4.4.4.4.4.4.4.4.4.4.4.4.4.3.u L $.",
"4.4.3.T 4.4.4.4.4.4.4.4.4.4.4.4.4.4.4.4.4.4.4.-.R 4.4.4.4.4.4.#.T 4.4.4.4.4.4.&.R 4.4.4.4.4.4.4.4.4.4.4.4.4.4.4.4.4.4.4.@.^ 4.3.",
"4.4.4.T @.4.4.4.4.4.4.4.4.4.4.4.4.4.4.4.4.4.4._ ) 4.4.4.4.4.4.#.T 4.4.4.4.4.4.4.T #.4.4.4.4.4.4.4.4.4.4.4.4.4.4.4.4.4.4./ ) 4.4.",
"4.4.4._ / 4.4.4.4.4.4.4.4.4.4.4.4.4.4.4.4.4.4.T O.4.4.4.4.4.4.#.T 4.4.4.4.4.4.4./ _ 4.4.4.4.4.4.4.4.4.4.4.4.4.4.4.4.4.4.U -.4.4.",
"4.4.4.-.U 4.4.4.4.4.4.4.4.4.4.4.4.4.4.4.4.4.:.U 4.4.4.4.4.4.4.#.T 4.4.4.4.4.4.4.@.T 4.4.4.4.4.4.4.4.4.4.4.4.4.4.4.4.4.#.T 4.4.4.",
"4.4.4.4.T @.4.4.4.4.4.4.4.4.4.4.4.4.4.4.4.4._ / 4.4.4.4.4.4.4.#.U 4.4.4.4.4.4.4.4.U ;.4.4.4.4.4.4.4.4.4.4.4.4.4.4.4.4./ ) 4.4.4.",
"4.4.4.4.) ) 4.4.4.4.4.4.4.4.4.4.4.4.4.4.4.4.T O.4.4.4.4.4.4.4.#.T 4.4.4.4.4.4.4.4.) _ 4.4.4.4.4.4.4.4.4.4.4.4.4.4.4.4.U #.4.4.4.",
"4.4.4.4.#.T 4.4.4.4.4.4.4.4.4.4.4.4.4.4.4.:.U 4.4.4.4.4.4.4.4.#.T 4.4.4.4.4.4.4.4.O.T 4.4.4.4.4.4.4.4.4.4.4.4.4.4.4.#.T 4.4.4.4.",
"4.4.4.4.4.T #.4.4.4.4.4.4.4.4.4.4.4.4.4.4.[ / 4.4.4.4.4.4.4.4.#.Y 4.4.4.4.4.4.4.4.4.U >.4.4.4.4.4.4.4.4.4.4.4.4.4.4.) _ 4.4.4.4.",
"4.4.4.4.4.) ) 4.4.4.4.4.4.4.4.4.4.4.4.4.3.E O.4.4.4.4.4.4.4.4.#.T 4.4.4.4.4.4.4.4.4.) ] 4.4.4.4.4.4.4.4.4.4.4.4.4.4.U #.4.4.4.4.",
"4.4.4.4.4.#.T 4.4.4.4.4.4.4.4.4.4.4.4.X.t 0 +.4.4.4.4.4.4.4.4.#.T 4.4.4.4.4.4.4.4.4./ . J >.4.4.4.4.4.4.4.4.4.4.4.#.T 4.4.4.4.4.",
"4.4.4.4.4.4.T #.4.4.4.4.4.4.4.4.4.4.1.w v v g 4.4.4.4.4.4.4.4.#.T 4.4.4.4.4.4.4.4.$.5 b l I 4.4.4.4.4.4.4.4.4.4.4._ ) 4.4.4.4.4.",
"4.4.4.4.4.4.) _ 4.4.4.4.4.4.4.4.4.4.<.; b v t 4.4.4.4.4.4.4.4.#.T 4.4.4.4.4.4.4.4.o.$ b x L 4.4.4.4.4.4.4.4.4.4.4.T #.4.4.4.4.4.",
"4.4.4.4.4.4.#.T 4.4.4.4.4.4.4.4.4.4.4._ % a A ^ 2.4.4.4.4.4.4.#.U 4.4.4.4.4.4.4.#.Y Z - e #.4.4.4.4.4.4.4.4.4.4.#.T 4.4.4.4.4.4.",
"4.4.4.4.4.4.4.U #.4.4.4.4.4.4.4.4.4.4.4.S *.4.^ V O.4.4.4.4.4.#.T 4.4.4.4.4.4._ V } 4.` ( 4.4.4.4.4.4.4.4.4.4.4._ / 4.4.4.4.4.4.",
"4.4.4.4.4.4.4.) _ 4.4.4.4.4.4.4.4.4.4.4.T -.4.4.O.M ) 4.4.4.4.#.T 4.4.4.4.2.T U :.4.4.' _ 4.4.4.4.4.4.4.4.4.4.4.~ @.4.4.4.4.4.4.",
"4.4.4.4.4.4.4.@.~ 4.4.4.4.4.4.4.4.4.4.4.) [ 4.4.4.2.T U :.4.4.#.T 4.4.4.| V / 4.4.4.4.~ O.4.4.4.4.4.4.4.4.4.4.-.U 4.4.4.4.4.4.4.",
"4.4.4.4.4.4.4.4.U -.4.4.4.4.4.4.4.4.4.4.O.T 4.4.4.4.4._ V | 4.>.R 4.4./ V @.4.4.4.4.-.A 4.4.4.4.4.4.4.4.4.4.4._ / 4.4.4.4.4.4.4.",
"4.4.4.4.4.4.4.4./ _ 4.4.4.4.4.4.4.4.4.4.4.T [ 4.4.4.4.4.#.V ) ) O { T T 4.4.4.4.4.4.T _ 4.4.4.4.4.4.4.4.4.4.4.~ O.4.4.4.4.4.4.4.",
"4.4.4.4.4.4.4.4.O.T 4.4.4.4.4.4.4.4.4.4.4.-.M -.4.4.4.4.4.4.V > x * ` 4.4.4.4.4.4._ U 4.4.4.4.4.4.4.4.4.4.4.:.U 4.4.4.4.4.4.4.4.",
"4.4.4.4.4.4.4.4.4.T :.4.4.4.4.4.4.4.4.4.4.4.| A 2.4.4.4.4.4.L x b j  .4.4.4.4.4.} V :.4.4.4.4.4.4.4.4.4.4.4._ / 4.4.4.4.4.4.4.4.",
"4.4.4.4.4.4.4.4.4./ _ 4.4.4.4.4.4.4.4.4.4.4.4.[ U -.4.4.4.4.X.- < s 1.4.4.4.4.[ A :.4.4.4.4.4.4.4.4.4.4.4.4.~ O.4.4.4.4.4.4.4.4.",
"4.4.4.4.4.4.4.4.4.| T 4.4.4.4.4.4.4.4.4.4.4.4.4.} V | 4.4.4.4.$.` 1.4.4.4.4.) V -.4.4.4.4.4.4.4.4.4.4.4.4.:.U 4.4.4.4.4.4.4.4.4.",
"4.4.4.4.4.4.4.4.4.4.U :.4.4.4.4.4.4.4.4.4.4.4.4.4.#.A / 4.4.4.4.4.4.4.4.:.U ~ 4.4.4.4.4.4.4.4.4.4.4.4.4.4.[ / 4.4.4.4.4.4.4.4.4.",
"4.4.4.4.4.4.4.4.4.4./ [ 4.4.4.4.4.4.4.4.4.4.4.4.4.4.2.^ A @.4.4.4.4.4._ V _ 4.4.4.4.4.4.4.4.4.4.4.4.4.4.4.~ } 4.4.4.4.4.4.4.4.4.",
"4.4.4.4.4.4.4.4.4.4.| T 4.4.4.4.4.4.4.4.4.4.4.4.4.4.4.4.O.A ~ 2.4.} U ~ -.4.4.4.4.4.4.4.4.4.4.4.4.4.4.4.2.U 4.4.4.4.4.4.4.4.4.4.",
"4.4.4.4.4.4.4.4.4.4.4.U 2.4.4.4.4.4.4.4.4.4.4.4.4.4.4.4.4.4._ _ ~ U @.4.4.4.4.4.4.4.4.4.4.4.4.4.4.4.4.4.[ ^ 4.4.4.4.4.4.4.4.4.4.",
"4.4.4.4.4.4.4.4.4.4.4./ } 4.4.4.4.4.4.4.4.4.4.4.4.4.4.4.4.O.~ T [ _ / #.4.4.4.4.4.4.4.4.4.4.4.4.4.4.4.4.~ { 4.4.4.4.4.4.4.4.4.4.",
"4.4.4.4.4.4.4.4.4.4.4.} ~ 4.4.4.4.4.4.4.4.4.4.4.4.4.4.[ U U [ 4.4.:.) U T O.4.4.4.4.4.4.4.4.4.4.4.4.4.2.Y 2.4.4.4.4.4.4.4.4.4.4.",
"4.4.4.4.4.4.4.4.4.4.4.2.U :.4.4.4.4.4.4.4.4.4.4.#./ U ~ O.4.4.4.4.4.4.4.[ U T _ ;.4.4.4.4.4.4.4.4.4.4.[ ^ 4.4.4.4.4.4.4.4.4.4.4.",
"4.4.4.4.4.4.4.4.4.4.4.4.^ | 4.4.4.4.4.4.4.:._ T U ) :.4.4.4.4.4.4.4.4.4.4.4.O.^ U ^ } 4.4.4.4.4.4.4.4.^ [ 4.4.4.4.4.4.4.4.4.4.4.",
"4.4.4.4.4.4.4.4.4.4.4.4.X.F *.4.4.4.-.[ T U ^ O.4.4.4.4.4.4.4.4.4.4.4.4.4.4.4.4.4.[ T U / | 2.4.4.4...S 4.4.4.4.4.4.4.4.4.4.4.4.",
"4.4.4.4.4.4.4.4.4.4.4.4.! , 7 ) [ ~ U ) @.4.4.4.4.4.4.4.4.4.4.4.4.4.4.4.4.4.4.4.4.4.4.4.[ / T ) | I 6 = | 4.4.4.4.4.4.4.4.4.4.4.",
"4.4.4.4.4.4.4.4.4.4.4.*.5 b b   @ A ~ ^ ^ T ~ ~ ~ T ~ ~ ~ ~ T ~ ~ T ~ ~ ~ T ~ ~ ~ T ~ ~ / ^ T V X # b v f 4.4.4.4.4.4.4.4.4.4.4.",
"4.4.4.4.4.4.4.4.4.4.4.1.r z k H #.#.O.O.O.O.O.O.O.O.O.O.O.O.O.O.O.O.O.O.O.O.O.O.O.O.O.O.O.O.O.#.o.q x h W 4.4.4.4.4.4.4.4.4.4.4.",
"4.4.4.4.4.4.4.4.4.4.4.4.$.K I 4.4.4.4.4.4.4.4.4.4.4.4.4.4.4.4.4.4.4.4.4.4.4.4.4.4.4.4.4.4.4.4.4.4.@.K ! 4.4.4.4.4.4.4.4.4.4.4.4.",
"4.4.4.4.4.4.4.4.4.4.4.4.4.4.4.4.4.4.4.4.4.4.4.4.4.4.4.4.4.4.4.4.4.4.4.4.4.4.4.4.4.4.4.4.4.4.4.4.4.4.4.2.4.4.4.4.4.4.4.4.4.4.4.4."
};
